# xmcd CD database file generated by MAGIX-FreeDB-MP3_deluxe_17 v3.0beta1
#
# Track frame offsets:
#	150
#	15311
#	30720
#	47480
#	62940
#	79525
#	96264
#	115909
#	135930
#	152363
#	174003
#	188932
#	203296
#	221149
#	239683
#	254881
#
# Disc length: 3613
#
# Revision: 0
# Processed by: cddbd v1.5.2PL0 Copyright (c) Steve Scherf et al.
# Submitted via: MAGIX-FreeDB-MP3_deluxe_17 v3.0beta1
#
DISCID=cd0e1b10
DTITLE=Nashville Voices - My Maria
DYEAR=1900
DGENRE=country
TTITLE0=My Maria
TTITLE1=That Don't Impress Me Much
TTITLE2=Achy Breaky Heart
TTITLE3=Long Time Gone
TTITLE4=The Dance
TTITLE5=I Swear
TTITLE6=Bye Bye
TTITLE7=When You Say Nothing At All
TTITLE8=Live Like You Were Dying
TTITLE9=If Tomorrow Never Comes
TTITLE10=From Here To Eternity
TTITLE11=Man I Fell Like A Woman
TTITLE12=Imagine That
TTITLE13=The Best Of Intentions
TTITLE14=This Kiss
TTITLE15=Someone Else's Star
EXTD=
EXTT0=
EXTT1=
EXTT2=
EXTT3=
EXTT4=
EXTT5=
EXTT6=
EXTT7=
EXTT8=
EXTT9=
EXTT10=
EXTT11=
EXTT12=
EXTT13=
EXTT14=
EXTT15=
PLAYORDER=
